<svg id="pupperater-logo" data-name="logo" xmlns="http://www.w3.org/2000/svg" xmlns:xlink="http://www.w3.org/1999/xlink" viewBox="0 0 535.26 86.53"><defs><style>.cls-1{fill:none;}.cls-2{isolation:isolate;}.cls-3{fill:#fff;}.cls-4{fill:#ffa934;}.cls-5{clip-path:url(#clip-path);}.cls-6{fill:#ff9505;}</style><clipPath id="clip-path" transform="translate(-8 -22.78)"><rect class="cls-1" x="8" y="22.78" width="100.14" height="86.52"/></clipPath></defs><g id="Logo"><g id="Pupperater" class="cls-2"><g class="cls-2"><path class="cls-3" d="M140.07,89.59v-56h7.59v56Zm5.09-21.78V61.2H160.4a11.86,11.86,0,0,0,5.6-1.29,9.76,9.76,0,0,0,3.88-3.63,10.6,10.6,0,0,0,1.41-5.57,10.56,10.56,0,0,0-1.41-5.56A9.76,9.76,0,0,0,166,41.52a11.86,11.86,0,0,0-5.6-1.29H145.16V33.61h15.72a19.9,19.9,0,0,1,9.24,2.1,16.25,16.25,0,0,1,6.45,5.93A16.81,16.81,0,0,1,179,50.71a16.7,16.7,0,0,1-2.38,9,16.47,16.47,0,0,1-6.45,6,19.55,19.55,0,0,1-9.24,2.14Z" transform="translate(-8 -22.78)"/><path class="cls-3" d="M203.14,90.39a16.9,16.9,0,0,1-8.5-2.13,15.16,15.16,0,0,1-5.85-5.93,17.86,17.86,0,0,1-2.1-8.79V51.28H194V73.22A12.54,12.54,0,0,0,195,78.66a7.81,7.81,0,0,0,3.18,3.51,9.75,9.75,0,0,0,4.92,1.21,8.54,8.54,0,0,0,6.7-2.7,10.8,10.8,0,0,0,2.42-7.46V51.28h7.26V73.54a17.86,17.86,0,0,1-2.1,8.79,15.3,15.3,0,0,1-5.77,5.93A16.62,16.62,0,0,1,203.14,90.39Z" transform="translate(-8 -22.78)"/><path class="cls-3" d="M229.28,105.64V51.28h7.25V61.36l-1.37,9.27L236.53,80v25.65Zm20.16-15.25a16.82,16.82,0,0,1-7.86-1.81,14.53,14.53,0,0,1-5.61-5,14.79,14.79,0,0,1-2.34-7.34V64.67A14.4,14.4,0,0,1,236,57.29a14.85,14.85,0,0,1,5.65-5,16.65,16.65,0,0,1,7.78-1.82,17.52,17.52,0,0,1,9.48,2.66,18.85,18.85,0,0,1,6.65,7.18,22.56,22.56,0,0,1,0,20.33,18.42,18.42,0,0,1-6.65,7.13A17.66,17.66,0,0,1,249.44,90.39Zm-1.21-6.85a12,12,0,0,0,6.37-1.69A12.33,12.33,0,0,0,259,77.21a15.14,15.14,0,0,0,0-13.59,11.64,11.64,0,0,0-10.65-6.29A12.12,12.12,0,0,0,241.94,59a11.3,11.3,0,0,0-4.28,4.64,16,16,0,0,0,0,13.59,11.34,11.34,0,0,0,4.28,4.64A12,12,0,0,0,248.23,83.54Z" transform="translate(-8 -22.78)"/><path class="cls-3" d="M276.21,105.64V51.28h7.26V61.36l-1.37,9.27L283.47,80v25.65Zm20.17-15.25a16.87,16.87,0,0,1-7.87-1.81,14.57,14.57,0,0,1-5.6-5,14.79,14.79,0,0,1-2.34-7.34V64.67A14.4,14.4,0,0,1,283,57.29a14.85,14.85,0,0,1,5.65-5,16.65,16.65,0,0,1,7.78-1.82,17.46,17.46,0,0,1,9.47,2.66,18.79,18.79,0,0,1,6.66,7.18,22.56,22.56,0,0,1,0,20.33,18.37,18.37,0,0,1-6.66,7.13A17.6,17.6,0,0,1,296.38,90.39Zm-1.21-6.85a12,12,0,0,0,6.37-1.69,12.33,12.33,0,0,0,4.36-4.64,15.14,15.14,0,0,0,0-13.59,11.64,11.64,0,0,0-10.65-6.29A12.09,12.09,0,0,0,288.88,59a11.3,11.3,0,0,0-4.28,4.64,16,16,0,0,0,0,13.59,11.34,11.34,0,0,0,4.28,4.64A12,12,0,0,0,295.17,83.54Z" transform="translate(-8 -22.78)"/><path class="cls-3" d="M340.9,90.39a20.47,20.47,0,0,1-10.33-2.62,19.38,19.38,0,0,1-7.25-7.13,21,21,0,0,1,0-20.41,19.38,19.38,0,0,1,17.13-9.76,18.1,18.1,0,0,1,9.4,2.42,17,17,0,0,1,6.37,6.69,20.18,20.18,0,0,1,2.3,9.68c0,.54,0,1.12-.08,1.74a18.78,18.78,0,0,1-.32,2.13H325.74v-6h28.47l-2.67,2.33a14.31,14.31,0,0,0-1.37-6.57,10,10,0,0,0-3.87-4.19,11.55,11.55,0,0,0-6.05-1.49,12.88,12.88,0,0,0-6.53,1.61,11.08,11.08,0,0,0-4.36,4.51,14.55,14.55,0,0,0-1.53,6.86,14.74,14.74,0,0,0,1.62,7.06A11.37,11.37,0,0,0,334,81.89a14,14,0,0,0,6.86,1.65,15.32,15.32,0,0,0,5.93-1.13A12.17,12.17,0,0,0,351.46,79l4.68,4.76a17.89,17.89,0,0,1-6.73,4.92A21.55,21.55,0,0,1,340.9,90.39Z" transform="translate(-8 -22.78)"/></g><g class="cls-2"><path class="cls-4" d="M366.39,89.59V51.28h7.25V89.59Zm7.25-21.86-2.74-1.21q0-7.33,3.39-11.69t9.76-4.36a13.16,13.16,0,0,1,5.24,1,12.21,12.21,0,0,1,4.36,3.35l-4.76,4.92a7.41,7.41,0,0,0-2.66-1.86,9.48,9.48,0,0,0-3.39-.56,8.94,8.94,0,0,0-6.61,2.58Q373.64,62.49,373.64,67.73Z" transform="translate(-8 -22.78)"/><path class="cls-4" d="M413.81,90.39a17.82,17.82,0,0,1-9.52-2.62,18.62,18.62,0,0,1-6.73-7.13,22.23,22.23,0,0,1,0-20.33,19.18,19.18,0,0,1,6.69-7.18,17.64,17.64,0,0,1,9.56-2.66,16.36,16.36,0,0,1,7.78,1.82,14.54,14.54,0,0,1,7.87,12.38V76.2a15.17,15.17,0,0,1-2.3,7.34,14.33,14.33,0,0,1-5.49,5A16.51,16.51,0,0,1,413.81,90.39ZM415,83.54a11.16,11.16,0,0,0,8.71-3.67,13.54,13.54,0,0,0,3.31-9.4,15,15,0,0,0-1.5-6.89,11,11,0,0,0-4.23-4.6,13.06,13.06,0,0,0-12.78,0,11.88,11.88,0,0,0-4.36,4.64,14,14,0,0,0-1.57,6.73,14.24,14.24,0,0,0,1.57,6.82,11.77,11.77,0,0,0,4.4,4.64A12.36,12.36,0,0,0,415,83.54Zm11.53,6V79.26l1.37-9.35-1.37-9.28V51.28h7.34V89.59Z" transform="translate(-8 -22.78)"/><path class="cls-4" d="M440.75,57.89V51.28h26.13v6.61Zm9.43,31.7V35.23h7.26V89.59Z" transform="translate(-8 -22.78)"/><path class="cls-4" d="M490.51,90.39a20.41,20.41,0,0,1-10.32-2.62,19.34,19.34,0,0,1-7.26-7.13,21,21,0,0,1,0-20.41A19.42,19.42,0,0,1,480,53.09a19.62,19.62,0,0,1,10-2.62,18,18,0,0,1,9.39,2.42,17,17,0,0,1,6.37,6.69,20.07,20.07,0,0,1,2.3,9.68c0,.54,0,1.12-.08,1.74a18.78,18.78,0,0,1-.32,2.13H475.35v-6h28.47l-2.66,2.33a14.44,14.44,0,0,0-1.37-6.57,10.08,10.08,0,0,0-3.88-4.19,11.51,11.51,0,0,0-6-1.49,12.89,12.89,0,0,0-6.54,1.61A11,11,0,0,0,479,63.29a14.44,14.44,0,0,0-1.54,6.86,14.74,14.74,0,0,0,1.62,7.06,11.43,11.43,0,0,0,4.59,4.68,14,14,0,0,0,6.86,1.65,15.28,15.28,0,0,0,5.93-1.13A12.21,12.21,0,0,0,501.08,79l4.67,4.76A17.81,17.81,0,0,1,499,88.7,21.55,21.55,0,0,1,490.51,90.39Z" transform="translate(-8 -22.78)"/><path class="cls-4" d="M516,89.59V51.28h7.26V89.59Zm7.26-21.86-2.75-1.21q0-7.33,3.39-11.69t9.76-4.36a13.13,13.13,0,0,1,5.24,1,12.21,12.21,0,0,1,4.36,3.35l-4.76,4.92a7.32,7.32,0,0,0-2.66-1.86,9.48,9.48,0,0,0-3.39-.56,8.94,8.94,0,0,0-6.61,2.58C524.11,61.63,523.26,64.24,523.26,67.73Z" transform="translate(-8 -22.78)"/></g></g></g><g id="logo-2"><g class="cls-5"><g id="Group_35" data-name="Group 35"><path id="Path_36" data-name="Path 36" class="cls-6" d="M27.43,41c0-7.75,5.36-17.59,12.75-17.59s14,9.84,14,17.59a13.4,13.4,0,1,1-26.77,1.2q0-.6,0-1.2" transform="translate(-8 -22.78)"/><path id="Path_37" data-name="Path 37" class="cls-6" d="M62,36.93C62.8,29.22,69.08,22,76.44,22.84s13,9.31,12.13,17-7.5,14.3-14.85,13.49S61.1,44.62,62,36.93" transform="translate(-8 -22.78)"/><path id="Path_38" data-name="Path 38" class="cls-6" d="M107.94,62.43A10.57,10.57,0,1,1,87,59.51c0-.32.1-.64.17-.95,1.13-6,6.74-13.07,12.48-12s9.41,9.87,8.29,15.87" transform="translate(-8 -22.78)"/><path id="Path_39" data-name="Path 39" class="cls-6" d="M20.29,74.46A10.81,10.81,0,0,1,8.17,65.13c-.93-6,2-14.57,7.8-15.45s12.14,6.19,13.09,12.24A10.83,10.83,0,0,1,20.3,74.47" transform="translate(-8 -22.78)"/><path id="Path_40" data-name="Path 40" class="cls-6" d="M91.18,77a18,18,0,0,1-1.4,25.4l-.24.21a23.87,23.87,0,0,1-15.6,6.08,24.35,24.35,0,0,1-12.36-3,2.26,2.26,0,0,0-2.25,0,24.4,24.4,0,0,1-12.25,3.56,23.7,23.7,0,0,1-15.81-5.37,18,18,0,0,1-2.81-25.24l.23-.28a21,21,0,0,1,1.93-2.08,2.09,2.09,0,0,1,.29-.23l10.38-7.24,10.6-7.38a14.24,14.24,0,0,1,15.48-.36L78.23,68l10.64,6.75.29.23a19.87,19.87,0,0,1,2,2" transform="translate(-8 -22.78)"/></g></g></g></svg>