<svg id="mobile-logo" xmlns="http://www.w3.org/2000/svg" xmlns:xlink="http://www.w3.org/1999/xlink" viewBox="0 0 100.14 86.49"><defs><style>.cls-1{fill:none;}.cls-2{clip-path:url(#clip-path);}.cls-3{fill:#ff9505;}</style><clipPath id="clip-path" transform="translate(0 -0.77)"><rect class="cls-1" y="0.78" width="100.14" height="86.52"/></clipPath></defs><g id="logo-2"><g class="cls-2"><g id="Group_35" data-name="Group 35"><path id="Path_36" data-name="Path 36" class="cls-3" d="M19.43,19c0-7.75,5.36-17.59,12.75-17.59s14,9.84,14,17.59a13.4,13.4,0,1,1-26.75,1.61c0-.14,0-.27,0-.41V19" transform="translate(0 -0.77)"/><path id="Path_37" data-name="Path 37" class="cls-3" d="M54,14.93C54.8,7.22,61.08,0,68.44.84s13,9.31,12.13,17-7.5,14.3-14.85,13.49S53.1,22.62,54,14.93" transform="translate(0 -0.77)"/><path id="Path_38" data-name="Path 38" class="cls-3" d="M99.94,40.43A10.57,10.57,0,1,1,79,37.51a4.41,4.41,0,0,1,.17-.95c1.13-6,6.74-13.07,12.48-12s9.41,9.87,8.29,15.87" transform="translate(0 -0.77)"/><path id="Path_39" data-name="Path 39" class="cls-3" d="M12.29,52.46A10.81,10.81,0,0,1,.17,43.14h0c-.93-6,2-14.57,7.8-15.45s12.14,6.19,13.09,12.24A10.83,10.83,0,0,1,12.3,52.47" transform="translate(0 -0.77)"/><path id="Path_40" data-name="Path 40" class="cls-3" d="M83.18,55a18,18,0,0,1-1.4,25.4l-.24.21a23.92,23.92,0,0,1-15.6,6.08,24.35,24.35,0,0,1-12.36-3,2.26,2.26,0,0,0-2.25,0,24.43,24.43,0,0,1-12.25,3.56,23.67,23.67,0,0,1-15.81-5.37,18,18,0,0,1-2.81-25.24l.23-.28a21.12,21.12,0,0,1,1.93-2.08,2.09,2.09,0,0,1,.29-.23l10.38-7.24,10.6-7.38a14.24,14.24,0,0,1,15.48-.36L70.23,46l10.64,6.75.29.23a21,21,0,0,1,2,2" transform="translate(0 -0.77)"/></g></g></g></svg>